<svg xmlns="http://www.w3.org/2000/svg" viewBox="0 0 420 260" role="img" aria-label="Block with a datum feature symbol A attached to its bottom face">
<title>Block with a datum feature symbol A attached to its bottom face</title>
<style>
.d-part{fill:#e6edf5;stroke:#1d2733;stroke-width:1.8}
.d-ln{stroke:#1d2733;stroke-width:1.4;fill:none}
.d-thin{stroke:#1d2733;stroke-width:1;fill:none}
.d-center{stroke:#1d2733;stroke-width:0.9;fill:none;stroke-dasharray:14 3 3 3}
.d-zone{stroke:#b42318;stroke-width:1.4;fill:none;stroke-dasharray:6 4}
.d-zonefill{fill:#b42318;fill-opacity:0.08;stroke:none}
.d-txt{font-family:Arial,Helvetica,sans-serif;font-size:13px;fill:#1d2733}
.d-small{font-family:Arial,Helvetica,sans-serif;font-size:11px;fill:#4a5868}
.d-fill{fill:#1d2733;stroke:none}
.d-box{fill:#fff;stroke:#1d2733;stroke-width:1.3}
</style>
<rect x="110" y="80" width="200" height="100" class="d-part"/><polygon points="203,180 217,180 210,191" class="d-fill"/><line x1="210" y1="191" x2="210" y2="205" class="d-thin"/><rect x="199" y="205" width="22" height="22" class="d-box"/><text x="210" y="220.5" class="d-txt" text-anchor="middle">A</text><line x1="110" y1="80" x2="110" y2="45" class="d-thin"/><line x1="310" y1="80" x2="310" y2="45" class="d-thin"/><line x1="110" y1="50" x2="310" y2="50" class="d-thin"/><polygon points="110.0,50.0 117.3,46.6 117.3,53.4" class="d-fill"/><polygon points="310.0,50.0 302.7,53.4 302.7,46.6" class="d-fill"/><rect x="193.0" y="41" width="34" height="16" fill="#fff"/><text x="210.0" y="54" class="d-txt" text-anchor="middle">60</text><line x1="310" y1="80" x2="350" y2="80" class="d-thin"/><line x1="310" y1="180" x2="350" y2="180" class="d-thin"/><line x1="345" y1="80" x2="345" y2="180" class="d-thin"/><polygon points="345.0,80.0 348.4,87.3 341.6,87.3" class="d-fill"/><polygon points="345.0,180.0 341.6,172.7 348.4,172.7" class="d-fill"/><rect x="331.0" y="121.0" width="28" height="17" fill="#fff"/><text x="345" y="134.0" class="d-txt" text-anchor="middle">30</text>
</svg>
