<svg xmlns="http://www.w3.org/2000/svg" viewBox="0 0 420 250" role="img" aria-label="Block with a flatness frame 0.05 pointing at the top face">
<title>Block with a flatness frame 0.05 pointing at the top face</title>
<style>
.d-part{fill:#e6edf5;stroke:#1d2733;stroke-width:1.8}
.d-ln{stroke:#1d2733;stroke-width:1.4;fill:none}
.d-thin{stroke:#1d2733;stroke-width:1;fill:none}
.d-center{stroke:#1d2733;stroke-width:0.9;fill:none;stroke-dasharray:14 3 3 3}
.d-zone{stroke:#b42318;stroke-width:1.4;fill:none;stroke-dasharray:6 4}
.d-zonefill{fill:#b42318;fill-opacity:0.08;stroke:none}
.d-txt{font-family:Arial,Helvetica,sans-serif;font-size:13px;fill:#1d2733}
.d-small{font-family:Arial,Helvetica,sans-serif;font-size:11px;fill:#4a5868}
.d-fill{fill:#1d2733;stroke:none}
.d-box{fill:#fff;stroke:#1d2733;stroke-width:1.3}
</style>
<rect x="110" y="100" width="210" height="90" class="d-part"/><rect x="150" y="30" width="28" height="24" class="d-box"/><polygon points="156.0,46.0 160.0,38.0 172.0,38.0 168.0,46.0" class="d-ln"/><rect x="178" y="30" width="46" height="24" class="d-box"/><text x="201.0" y="46.5" class="d-txt" text-anchor="middle">0.05</text><polyline points="224,42 240,42 240,99" class="d-thin"/><polygon points="240.0,99.0 236.6,91.7 243.4,91.7" class="d-fill"/><line x1="110" y1="190" x2="110" y2="230" class="d-thin"/><line x1="320" y1="190" x2="320" y2="230" class="d-thin"/><line x1="110" y1="225" x2="320" y2="225" class="d-thin"/><polygon points="110.0,225.0 117.3,221.6 117.3,228.4" class="d-fill"/><polygon points="320.0,225.0 312.7,228.4 312.7,221.6" class="d-fill"/><rect x="198.0" y="216" width="34" height="16" fill="#fff"/><text x="215.0" y="229" class="d-txt" text-anchor="middle">70</text>
</svg>
