<svg xmlns="http://www.w3.org/2000/svg" viewBox="0 0 590 299" role="img" aria-label="Block in front and side views with a flatness frame 0.1 pointing at the left face">
<title>Block in front and side views with a flatness frame 0.1 pointing at the left face</title>
<style>
.d-part{fill:#e7e9e6;stroke:#1d2733;stroke-width:1.8}
.d-ln{stroke:#1d2733;stroke-width:1.4;fill:none}
.d-thin{stroke:#1d2733;stroke-width:1;fill:none}
.d-center{stroke:#1d2733;stroke-width:0.9;fill:none;stroke-dasharray:14 3 3 3}
.d-zone{stroke:#b42318;stroke-width:1.4;fill:none;stroke-dasharray:6 4}
.d-zonefill{fill:#b42318;fill-opacity:0.08;stroke:none}
.d-txt{font-family:Arial,Helvetica,sans-serif;font-size:13px;fill:#1d2733}
.d-small{font-family:Arial,Helvetica,sans-serif;font-size:11px;fill:#4a5868}
.d-fill{fill:#1d2733;stroke:none}
.d-box{fill:#fff;stroke:#1d2733;stroke-width:1.3}
</style>
<polygon points="170,185 350,185 350,95 170,95" class="d-part"/><rect x="425" y="95" width="105" height="90" class="d-part"/><line x1="170" y1="185" x2="170" y2="254" class="d-thin"/><line x1="350" y1="185" x2="350" y2="254" class="d-thin"/><line x1="170" y1="249" x2="350" y2="249" class="d-thin"/><polygon points="170.0,249.0 177.3,245.6 177.3,252.4" class="d-fill"/><polygon points="350.0,249.0 342.7,252.4 342.7,245.6" class="d-fill"/><rect x="246.0" y="240" width="28" height="16" fill="#fff"/><text x="260.0" y="253" class="d-txt" text-anchor="middle">60</text><line x1="425" y1="185" x2="425" y2="254" class="d-thin"/><line x1="530" y1="185" x2="530" y2="254" class="d-thin"/><line x1="425" y1="249" x2="530" y2="249" class="d-thin"/><polygon points="425.0,249.0 432.3,245.6 432.3,252.4" class="d-fill"/><polygon points="530.0,249.0 522.7,252.4 522.7,245.6" class="d-fill"/><rect x="463.5" y="240" width="28" height="16" fill="#fff"/><text x="477.5" y="253" class="d-txt" text-anchor="middle">35</text><line x1="530" y1="95" x2="565" y2="95" class="d-thin"/><line x1="530" y1="185" x2="565" y2="185" class="d-thin"/><line x1="560" y1="95" x2="560" y2="185" class="d-thin"/><polygon points="560.0,95.0 563.4,102.3 556.6,102.3" class="d-fill"/><polygon points="560.0,185.0 556.6,177.7 563.4,177.7" class="d-fill"/><rect x="546.0" y="131.0" width="28" height="17" fill="#fff"/><text x="560" y="144.0" class="d-txt" text-anchor="middle">30</text><text x="130" y="285" class="d-small" text-anchor="start">Dimensions in mm. Unless otherwise specified, tolerance ±0.1.</text><rect x="20" y="45" width="28" height="24" class="d-box"/><polygon points="26.0,61.0 30.0,53.0 42.0,53.0 38.0,61.0" class="d-ln"/><rect x="48" y="45" width="38" height="24" class="d-box"/><text x="67.0" y="61.5" class="d-txt" text-anchor="middle">0.1</text><polyline points="53.0,69 95,140 169,140" class="d-thin"/><polygon points="169.0,140.0 161.7,143.4 161.7,136.6" class="d-fill"/>
</svg>
